<svg width="180" height="49" viewBox="0 0 180 49" fill="none" xmlns="http://www.w3.org/2000/svg">
<path d="M136.64 25.488C136.64 32.6677 130.82 38.488 123.64 38.488C116.46 38.488 110.64 32.6677 110.64 25.488C110.64 18.3083 116.46 12.488 123.64 12.488C130.82 12.488 136.64 18.3083 136.64 25.488Z" fill="#6D29BD"/>
<path d="M46.64 23.988C46.64 17.6367 51.7887 12.488 58.14 12.488C64.4913 12.488 69.64 17.6367 69.64 23.988C69.64 30.3393 64.4913 35.488 58.14 35.488C51.7887 35.488 46.64 30.3393 46.64 23.988Z" fill="black"/>
<path d="M154.64 23.988C154.64 17.6367 159.789 12.488 166.14 12.488C172.491 12.488 177.64 17.6367 177.64 23.988C177.64 30.3393 172.491 35.488 166.14 35.488C159.789 35.488 154.64 30.3393 154.64 23.988Z" fill="black"/>
<path d="M15.64 23.988C15.64 18.189 20.341 13.488 26.14 13.488C31.939 13.488 36.64 18.189 36.64 23.988C36.64 29.787 31.939 34.488 26.14 34.488C20.341 34.488 15.64 29.787 15.64 23.988Z" fill="#6D29BD"/>
<path d="M7.2 37.488C5.792 37.488 4.544 37.104 3.456 36.336C2.368 35.568 1.52 34.528 0.912 33.216C0.304 31.872 0 30.336 0 28.608V2.4C0 1.696 0.224 1.12 0.672 0.672C1.12 0.224 1.696 0 2.4 0C3.104 0 3.68 0.224 4.128 0.672C4.576 1.12 4.8 1.696 4.8 2.4V28.608C4.8 29.792 5.024 30.768 5.472 31.536C5.92 32.304 6.496 32.688 7.2 32.688H8.4C9.04 32.688 9.552 32.912 9.936 33.36C10.352 33.808 10.56 34.384 10.56 35.088C10.56 35.792 10.256 36.368 9.648 36.816C9.04 37.264 8.256 37.488 7.296 37.488H7.2Z" fill="black"/>
<path d="M25.8015 37.68C23.2095 37.68 20.9215 37.12 18.9375 36C16.9535 34.848 15.3855 33.28 14.2335 31.296C13.1135 29.28 12.5535 26.976 12.5535 24.384C12.5535 21.76 13.1135 19.456 14.2335 17.472C15.3855 15.456 16.9535 13.888 18.9375 12.768C20.9215 11.616 23.2095 11.04 25.8015 11.04C28.3615 11.04 30.6335 11.616 32.6175 12.768C34.6015 13.888 36.1535 15.456 37.2735 17.472C38.4255 19.456 39.0015 21.76 39.0015 24.384C39.0015 26.976 38.4415 29.28 37.3215 31.296C36.2015 33.28 34.6495 34.848 32.6655 36C30.6815 37.12 28.3935 37.68 25.8015 37.68ZM25.8015 33.36C27.4655 33.36 28.9375 32.976 30.2175 32.208C31.4975 31.44 32.4895 30.384 33.1935 29.04C33.9295 27.696 34.2975 26.144 34.2975 24.384C34.2975 22.624 33.9295 21.072 33.1935 19.728C32.4895 18.352 31.4975 17.28 30.2175 16.512C28.9375 15.744 27.4655 15.36 25.8015 15.36C24.1375 15.36 22.6655 15.744 21.3855 16.512C20.1055 17.28 19.0975 18.352 18.3615 19.728C17.6255 21.072 17.2575 22.624 17.2575 24.384C17.2575 26.144 17.6255 27.696 18.3615 29.04C19.0975 30.384 20.1055 31.44 21.3855 32.208C22.6655 32.976 24.1375 33.36 25.8015 33.36Z" fill="#6D29BD"/>
<path d="M58.1921 37.68C55.6961 37.68 53.4401 37.104 51.4241 35.952C49.4401 34.768 47.8561 33.168 46.6721 31.152C45.5201 29.136 44.9441 26.864 44.9441 24.336C44.9441 21.808 45.4721 19.552 46.5281 17.568C47.6161 15.552 49.0881 13.968 50.9441 12.816C52.8001 11.632 54.8961 11.04 57.2321 11.04C59.1201 11.04 60.8641 11.44 62.4641 12.24C64.0641 13.008 65.4081 14.064 66.4961 15.408V2.448C66.4961 1.712 66.7201 1.12 67.1681 0.672C67.6481 0.224 68.2401 0 68.9441 0C69.6801 0 70.2721 0.224 70.7201 0.672C71.1681 1.12 71.3921 1.712 71.3921 2.448V24.336C71.3921 26.864 70.8001 29.136 69.6161 31.152C68.4641 33.168 66.8961 34.768 64.9121 35.952C62.9281 37.104 60.6881 37.68 58.1921 37.68ZM58.1921 33.36C59.8241 33.36 61.2801 32.976 62.5601 32.208C63.8401 31.408 64.8481 30.32 65.5841 28.944C66.3201 27.568 66.6881 26.032 66.6881 24.336C66.6881 22.608 66.3201 21.072 65.5841 19.728C64.8481 18.384 63.8401 17.328 62.5601 16.56C61.2801 15.76 59.8241 15.36 58.1921 15.36C56.5921 15.36 55.1361 15.76 53.8241 16.56C52.5441 17.328 51.5201 18.384 50.7521 19.728C50.0161 21.072 49.6481 22.608 49.6481 24.336C49.6481 26.032 50.0161 27.568 50.7521 28.944C51.5201 30.32 52.5441 31.408 53.8241 32.208C55.1361 32.976 56.5921 33.36 58.1921 33.36Z" fill="black"/>
<path d="M103.512 36.488C101.912 36.488 100.472 36.088 99.192 35.288C97.912 34.456 96.904 33.336 96.168 31.928C95.432 30.52 95.064 28.936 95.064 27.176V4.28C95.064 3.576 95.288 3 95.736 2.552C96.184 2.104 96.76 1.88 97.464 1.88C98.168 1.88 98.744 2.104 99.192 2.552C99.64 3 99.864 3.576 99.864 4.28V27.176C99.864 28.456 100.216 29.528 100.92 30.392C101.624 31.256 102.488 31.688 103.512 31.688H105.144C105.72 31.688 106.2 31.912 106.584 32.36C107 32.808 107.208 33.384 107.208 34.088C107.208 34.792 106.936 35.368 106.392 35.816C105.88 36.264 105.208 36.488 104.376 36.488H103.512ZM92.856 15.32C92.184 15.32 91.64 15.128 91.224 14.744C90.808 14.36 90.6 13.88 90.6 13.304C90.6 12.664 90.808 12.152 91.224 11.768C91.64 11.384 92.184 11.192 92.856 11.192H103.944C104.616 11.192 105.16 11.384 105.576 11.768C105.992 12.152 106.2 12.664 106.2 13.304C106.2 13.88 105.992 14.36 105.576 14.744C105.16 15.128 104.616 15.32 103.944 15.32H92.856Z" fill="black"/>
<path d="M136.24 48.72C135.536 48.72 134.96 48.48 134.512 48C134.064 47.552 133.84 46.976 133.84 46.272C133.84 45.536 134.064 44.944 134.512 44.496C134.96 44.048 135.536 43.824 136.24 43.824C137.52 43.824 138.64 43.536 139.6 42.96C140.56 42.416 141.312 41.664 141.856 40.704C142.432 39.744 142.72 38.64 142.72 37.392V13.68C142.72 12.944 142.944 12.352 143.392 11.904C143.872 11.456 144.464 11.232 145.168 11.232C145.904 11.232 146.496 11.456 146.944 11.904C147.392 12.352 147.616 12.944 147.616 13.68V37.392C147.616 39.6 147.12 41.552 146.128 43.248C145.168 44.944 143.84 46.272 142.144 47.232C140.448 48.224 138.48 48.72 136.24 48.72ZM145.168 6.96C144.304 6.96 143.552 6.656 142.912 6.048C142.304 5.408 142 4.656 142 3.792C142 2.928 142.304 2.192 142.912 1.584C143.552 0.944 144.304 0.624001 145.168 0.624001C146.032 0.624001 146.768 0.944 147.376 1.584C148.016 2.192 148.336 2.928 148.336 3.792C148.336 4.656 148.016 5.408 147.376 6.048C146.768 6.656 146.032 6.96 145.168 6.96Z" fill="black"/>
<path d="M166.723 37.68C164.131 37.68 161.843 37.12 159.859 36C157.875 34.848 156.307 33.28 155.155 31.296C154.035 29.28 153.475 26.976 153.475 24.384C153.475 21.76 154.035 19.456 155.155 17.472C156.307 15.456 157.875 13.888 159.859 12.768C161.843 11.616 164.131 11.04 166.723 11.04C169.283 11.04 171.555 11.616 173.539 12.768C175.523 13.888 177.075 15.456 178.195 17.472C179.347 19.456 179.923 21.76 179.923 24.384C179.923 26.976 179.363 29.28 178.243 31.296C177.123 33.28 175.571 34.848 173.587 36C171.603 37.12 169.315 37.68 166.723 37.68ZM166.723 33.36C168.387 33.36 169.859 32.976 171.139 32.208C172.419 31.44 173.411 30.384 174.115 29.04C174.851 27.696 175.219 26.144 175.219 24.384C175.219 22.624 174.851 21.072 174.115 19.728C173.411 18.352 172.419 17.28 171.139 16.512C169.859 15.744 168.387 15.36 166.723 15.36C165.059 15.36 163.587 15.744 162.307 16.512C161.027 17.28 160.019 18.352 159.283 19.728C158.547 21.072 158.179 22.624 158.179 24.384C158.179 26.144 158.547 27.696 159.283 29.04C160.019 30.384 161.027 31.44 162.307 32.208C163.587 32.976 165.059 33.36 166.723 33.36Z" fill="black"/>
<path d="M79.64 13.488C79.64 12.3834 80.5354 11.488 81.64 11.488C82.7446 11.488 83.64 12.3834 83.64 13.488V34.488C83.64 35.5926 82.7446 36.488 81.64 36.488C80.5354 36.488 79.64 35.5926 79.64 34.488V13.488Z" fill="black"/>
<path d="M84.64 3.488C84.64 5.14486 83.2969 6.488 81.64 6.488C79.9831 6.488 78.64 5.14486 78.64 3.488C78.64 1.83115 79.9831 0.488001 81.64 0.488001C83.2969 0.488001 84.64 1.83115 84.64 3.488Z" fill="#6D29BD"/>
<path d="M115.314 20.488C114.941 20.488 114.64 20.7717 114.64 21.1244C114.64 21.477 114.941 21.7607 115.314 21.7607H116.587C116.697 21.7607 116.789 21.835 116.809 21.9357L118.273 29.527C118.447 30.4338 119.284 31.0941 120.262 31.0941H127.452C127.826 31.0941 128.126 30.8104 128.126 30.4577C128.126 30.105 127.826 29.8213 127.452 29.8213H120.262C119.936 29.8213 119.658 29.6013 119.599 29.299L119.456 28.5486H127.986C128.851 28.5486 129.593 27.9679 129.753 27.1645L130.624 22.7657C130.728 22.2433 130.304 21.7607 129.739 21.7607H118.144L118.132 21.7077C117.998 21.0024 117.346 20.488 116.584 20.488H115.314ZM120.484 34.488C121.229 34.488 121.833 33.9179 121.833 33.2153C121.833 32.5126 121.229 31.9425 120.484 31.9425C119.74 31.9425 119.135 32.5126 119.135 33.2153C119.135 33.9179 119.74 34.488 120.484 34.488ZM126.778 34.488C127.522 34.488 128.126 33.9179 128.126 33.2153C128.126 32.5126 127.522 31.9425 126.778 31.9425C126.033 31.9425 125.429 32.5126 125.429 33.2153C125.429 33.9179 126.033 34.488 126.778 34.488Z" fill="white"/>
<path d="M25.6415 37.488C18.462 37.488 12.64 31.6689 12.64 24.4895C12.64 17.31 18.462 11.488 25.6415 11.488C32.8209 11.488 38.64 17.3071 38.64 24.4865C38.64 31.666 32.8209 37.488 25.6415 37.488Z" fill="#6D29BD"/>
<path d="M25.6415 35.8632C31.9227 35.8632 37.0152 30.7707 37.0152 24.4895C37.0152 18.2082 31.9227 13.1128 25.6415 13.1128C19.3602 13.1128 14.2648 18.2053 14.2648 24.4895C14.2648 30.7736 19.3573 35.8632 25.6415 35.8632Z" fill="white"/>
<path d="M30.077 19.2081C30.4491 18.8215 31.3617 19.5947 31.3617 19.5947C32.3587 20.8794 32.9546 22.51 32.9546 24.2802C32.9546 28.4338 29.6817 31.7997 25.6415 31.7997C21.6012 31.7997 18.3283 28.4338 18.3283 24.2802C18.3283 22.481 18.9416 20.83 19.9648 19.5365C19.9648 19.5365 20.7641 18.8273 21.171 19.2052C21.578 19.583 21.4733 20.2487 21.2379 20.5451C20.4095 21.5915 19.9502 22.8966 19.9502 24.2802C19.9502 27.5444 22.5081 30.1749 25.6385 30.1749C28.769 30.1749 31.3269 27.5473 31.3269 24.2802C31.3269 22.917 30.8792 21.6293 30.0741 20.5887C29.8445 20.2923 29.702 19.5947 30.077 19.2081Z" fill="#6D29BD"/>
<path d="M24.8276 17.9873C24.8276 17.5396 25.188 17.1763 25.6415 17.1763C26.0891 17.1763 26.4553 17.5396 26.4553 17.9873V23.6785C26.4553 24.1261 26.0949 24.4895 25.6415 24.4895C25.1938 24.4895 24.8276 24.1261 24.8276 23.6785V17.9873Z" fill="#6D29BD"/>
</svg>
