<svg width="263" height="36" viewBox="0 0 263 36" fill="none" xmlns="http://www.w3.org/2000/svg">
<path d="M0 34.9091V0H9.47727V27.2727H23.5909V34.9091H0Z" fill="black"/>
<path d="M63.75 17.9091C63.75 27.5741 55.915 35.4091 46.25 35.4091C36.585 35.4091 28.75 27.5741 28.75 17.9091C28.75 8.24411 36.585 0.409092 46.25 0.409092C55.915 0.409092 63.75 8.24411 63.75 17.9091ZM37.839 17.9091C37.839 22.5544 41.6047 26.3201 46.25 26.3201C50.8953 26.3201 54.661 22.5544 54.661 17.9091C54.661 13.2638 50.8953 9.49809 46.25 9.49809C41.6047 9.49809 37.839 13.2638 37.839 17.9091Z" fill="black"/>
<path d="M55.2365 17.9091C55.2365 22.8722 51.2131 26.8956 46.25 26.8956C41.2869 26.8956 37.2635 22.8722 37.2635 17.9091C37.2635 12.946 41.2869 8.92261 46.25 8.92261C51.2131 8.92261 55.2365 12.946 55.2365 17.9091Z" fill="#6D29BD"/>
<path d="M66.75 0.409092H84.25C93.915 0.409092 101.75 8.24411 101.75 17.9091C101.75 27.5741 93.915 35.4091 84.25 35.4091H66.75V0.409092Z" fill="black"/>
<path d="M116.477 0V34.9091H107V0H116.477Z" fill="black"/>
<path d="M123.045 7.63636V0H153.386V7.63636H142.886V34.9091H133.545V7.63636H123.045Z" fill="black"/>
<path d="M175.252 35.4091C165.587 35.4091 157.75 27.5757 157.75 17.911C157.75 8.24643 165.587 0.409092 175.252 0.409092C184.917 0.409092 192.75 8.24252 192.75 17.9071C192.75 27.5718 184.917 35.4091 175.252 35.4091Z" fill="#6D29BD"/>
<path d="M175.252 33.2218C183.708 33.2218 190.563 26.3666 190.563 17.911C190.563 9.45549 183.708 2.59635 175.252 2.59635C166.796 2.59635 159.937 9.45158 159.937 17.911C159.937 26.3705 166.792 33.2218 175.252 33.2218Z" fill="white"/>
<path d="M181.223 10.8015C181.724 10.2811 182.952 11.3219 182.952 11.3219C184.294 13.0513 185.097 15.2464 185.097 17.6293C185.097 23.2207 180.691 27.7517 175.252 27.7517C169.813 27.7517 165.407 23.2207 165.407 17.6293C165.407 15.2073 166.233 12.9848 167.61 11.2436C167.61 11.2436 168.686 10.2889 169.234 10.7976C169.782 11.3062 169.641 12.2023 169.324 12.6014C168.209 14.01 167.591 15.7668 167.591 17.6293C167.591 22.0234 171.034 25.5645 175.248 25.5645C179.462 25.5645 182.905 22.0273 182.905 17.6293C182.905 15.7942 182.303 14.0608 181.219 12.6601C180.91 12.261 180.718 11.3219 181.223 10.8015Z" fill="#6D29BD"/>
<path d="M174.156 9.15811C174.156 8.55554 174.642 8.06644 175.252 8.06644C175.855 8.06644 176.348 8.55554 176.348 9.15811V16.8194C176.348 17.4219 175.862 17.911 175.252 17.911C174.649 17.911 174.156 17.4219 174.156 16.8194V9.15811Z" fill="#6D29BD"/>
<path d="M212.386 0H221.727V23.9318C221.716 26.2045 221.142 28.2045 220.006 29.9318C218.881 31.6477 217.324 32.9886 215.335 33.9545C213.358 34.9091 211.08 35.3864 208.5 35.3864C206.261 35.3864 204.216 35 202.364 34.2273C200.511 33.4432 199.034 32.2159 197.932 30.5455C196.83 28.8636 196.284 26.6818 196.295 24H205.773C205.807 24.875 205.955 25.6136 206.216 26.2159C206.489 26.8182 206.864 27.2727 207.341 27.5795C207.83 27.875 208.42 28.0227 209.114 28.0227C209.818 28.0227 210.409 27.8693 210.886 27.5625C211.375 27.2557 211.744 26.8011 211.994 26.1989C212.244 25.5852 212.375 24.8295 212.386 23.9318V0Z" fill="black"/>
<path d="M262.75 17.9091C262.75 27.5741 254.915 35.4091 245.25 35.4091C235.585 35.4091 227.75 27.5741 227.75 17.9091C227.75 8.24411 235.585 0.409092 245.25 0.409092C254.915 0.409092 262.75 8.24411 262.75 17.9091Z" fill="black"/>
</svg>
